<?xml version="1.0" standalone="no"?>
<!DOCTYPE svg PUBLIC "-//W3C//DTD SVG 20010904//EN"
 "http://www.w3.org/TR/2001/REC-SVG-20010904/DTD/svg10.dtd">
<svg version="1.0" xmlns="http://www.w3.org/2000/svg"
 width="700.000000pt" height="700.000000pt" viewBox="0 0 700.000000 700.000000"
 preserveAspectRatio="xMidYMid meet">
<metadata>
Created by potrace 1.11, written by Peter Selinger 2001-2013
</metadata>
<g transform="translate(0.000000,700.000000) scale(0.100000,-0.100000)"
fill="#000000" stroke="none">
<path d="M4085 6839 c-3 -4 2 -6 10 -5 21 3 28 13 10 13 -9 0 -18 -4 -20 -8z"/>
<path d="M3919 6353 c-13 -16 -12 -17 4 -4 16 13 21 21 13 21 -2 0 -10 -8 -17
-17z"/>
<path d="M2390 6116 c7 -7 13 -7 20 0 6 6 3 10 -10 10 -13 0 -16 -4 -10 -10z"/>
<path d="M1820 6046 c0 -2 8 -10 18 -17 15 -13 16 -12 3 4 -13 16 -21 21 -21
13z"/>
<path d="M1905 5639 c-3 -4 2 -6 10 -5 21 3 28 13 10 13 -9 0 -18 -4 -20 -8z"/>
<path d="M3527 5589 c-30 -5 -74 -45 -297 -267 -143 -144 -266 -262 -271 -262
-6 0 -8 -3 -6 -7 6 -10 -19 -34 -27 -26 -3 4 -6 1 -6 -6 0 -18 -110 -122 -122
-115 -6 4 -8 2 -4 -4 8 -14 -442 -464 -456 -455 -6 3 -8 1 -4 -5 6 -11 -637
-662 -655 -662 -6 0 -8 -3 -6 -7 6 -10 -19 -34 -27 -26 -3 4 -6 1 -6 -6 0 -18
-110 -122 -122 -115 -6 4 -8 2 -4 -4 3 -6 -18 -35 -49 -66 -48 -48 -53 -56
-41 -69 8 -8 12 -17 9 -21 -4 -3 -1 -6 5 -6 14 0 147 -132 144 -142 -1 -5 2
-8 8 -8 12 0 150 -139 150 -152 0 -5 4 -7 8 -4 11 7 44 -33 37 -44 -3 -6 1 -7
9 -4 15 6 21 -6 17 -29 -1 -5 3 -6 8 -3 13 8 103 -83 95 -96 -4 -7 -2 -8 4 -4
12 7 142 -118 142 -136 0 -5 4 -7 8 -4 11 7 44 -33 37 -44 -3 -6 1 -7 9 -4 15
6 21 -6 17 -29 -1 -5 3 -6 8 -3 13 8 103 -83 95 -96 -4 -7 -2 -8 4 -4 9 6 152
-127 200 -186 12 -14 -11 -41 -178 -207 -106 -105 -197 -191 -203 -191 -5 0
-8 -2 -5 -5 7 -7 -439 -455 -453 -455 -5 0 -9 -4 -9 -10 0 -13 -150 -161 -159
-156 -4 3 -8 -4 -8 -15 -2 -19 17 -19 1039 -19 l1040 0 155 155 c87 88 159
152 165 149 6 -4 8 -2 4 4 -7 11 138 162 156 162 6 0 9 2 6 5 -9 10 643 656
654 649 6 -4 8 -2 4 4 -7 11 278 302 297 302 6 0 8 2 5 5 -3 3 141 152 319
331 l325 325 -68 67 c-38 37 -68 70 -66 75 1 4 -2 7 -7 7 -13 0 -311 299 -311
312 0 6 -3 9 -6 6 -9 -10 -155 142 -148 154 4 6 3 8 -4 4 -13 -8 -104 82 -96
95 3 5 2 9 -3 8 -23 -4 -35 2 -29 17 3 8 2 12 -4 9 -11 -7 -51 26 -44 37 3 4
1 8 -4 8 -5 0 -64 54 -131 120 -111 110 -140 143 -109 124 7 -4 8 -3 4 4 -9
15 162 184 176 175 6 -3 8 -1 4 5 -8 14 162 184 176 176 6 -4 8 -2 5 3 -7 12
198 225 207 215 3 -3 6 0 6 6 0 6 102 112 226 236 l226 226 -866 0 c-476 1
-933 2 -1015 3 -81 1 -164 -1 -184 -4z"/>
<path d="M3194 5546 c1 -8 5 -18 8 -22 4 -3 5 1 4 10 -1 8 -5 18 -8 22 -4 3
-5 -1 -4 -10z"/>
<path d="M2390 5156 c7 -7 13 -7 20 0 6 6 3 10 -10 10 -13 0 -16 -4 -10 -10z"/>
<path d="M2656 4918 c3 -5 10 -6 15 -3 13 9 11 12 -6 12 -8 0 -12 -4 -9 -9z"/>
<path d="M786 4682 c-2 -4 4 -8 14 -8 10 0 16 4 14 8 -3 4 -9 8 -14 8 -5 0
-11 -4 -14 -8z"/>
<path d="M5106 4682 c-2 -4 4 -8 14 -8 10 0 16 4 14 8 -3 4 -9 8 -14 8 -5 0
-11 -4 -14 -8z"/>
<path d="M1679 4458 c-5 -18 -6 -38 -1 -34 7 8 12 36 6 36 -2 0 -4 -1 -5 -2z"/>
<path d="M5834 4289 c-3 -6 -2 -15 3 -20 5 -5 9 -1 9 11 0 23 -2 24 -12 9z"/>
<path d="M1006 4122 c-3 -5 1 -9 9 -9 8 0 12 4 9 9 -3 4 -7 8 -9 8 -2 0 -6 -4
-9 -8z"/>
<path d="M5116 4038 c3 -5 10 -6 15 -3 13 9 11 12 -6 12 -8 0 -12 -4 -9 -9z"/>
<path d="M700 3966 c0 -2 8 -10 18 -17 15 -13 16 -12 3 4 -13 16 -21 21 -21
13z"/>
<path d="M576 3802 c-3 -5 1 -9 9 -9 8 0 12 4 9 9 -3 4 -7 8 -9 8 -2 0 -6 -4
-9 -8z"/>
<path d="M874 3640 c0 -13 4 -16 10 -10 7 7 7 13 0 20 -6 6 -10 3 -10 -10z"/>
<path d="M86 3638 c3 -5 10 -6 15 -3 13 9 11 12 -6 12 -8 0 -12 -4 -9 -9z"/>
<path d="M1376 3638 c3 -5 10 -6 15 -3 13 9 11 12 -6 12 -8 0 -12 -4 -9 -9z"/>
<path d="M5755 3511 c-3 -5 -2 -12 3 -15 5 -3 9 1 9 9 0 17 -3 19 -12 6z"/>
<path d="M5590 3256 c0 -2 8 -10 18 -17 15 -13 16 -12 3 4 -13 16 -21 21 -21
13z"/>
<path d="M5354 2680 c0 -13 4 -16 10 -10 7 7 7 13 0 20 -6 6 -10 3 -10 -10z"/>
<path d="M6159 2538 c-5 -18 -6 -38 -1 -34 7 8 12 36 6 36 -2 0 -4 -1 -5 -2z"/>
<path d="M6606 2522 c-3 -5 1 -9 9 -9 8 0 12 4 9 9 -3 4 -7 8 -9 8 -2 0 -6 -4
-9 -8z"/>
<path d="M473 2015 c0 -8 4 -12 9 -9 5 3 6 10 3 15 -9 13 -12 11 -12 -6z"/>
<path d="M5600 1960 c-9 -6 -10 -10 -3 -10 6 0 15 5 18 10 8 12 4 12 -15 0z"/>
<path d="M4286 1882 c-3 -5 1 -9 9 -9 8 0 12 4 9 9 -3 4 -7 8 -9 8 -2 0 -6 -4
-9 -8z"/>
<path d="M5746 1802 c-2 -4 4 -8 14 -8 10 0 16 4 14 8 -3 4 -9 8 -14 8 -5 0
-11 -4 -14 -8z"/>
<path d="M5034 1560 c0 -13 4 -16 10 -10 7 7 7 13 0 20 -6 6 -10 3 -10 -10z"/>
<path d="M1100 1326 c0 -2 8 -10 18 -17 15 -13 16 -12 3 4 -13 16 -21 21 -21
13z"/>
<path d="M1359 1233 c-13 -16 -12 -17 4 -4 16 13 21 21 13 21 -2 0 -10 -8 -17
-17z"/>
<path d="M3914 1089 c-3 -6 -2 -15 3 -20 5 -5 9 -1 9 11 0 23 -2 24 -12 9z"/>
<path d="M2544 1002 c4 -3 14 -7 22 -8 9 -1 13 0 10 4 -4 3 -14 7 -22 8 -9 1
-13 0 -10 -4z"/>
<path d="M4630 856 c0 -2 8 -10 18 -17 15 -13 16 -12 3 4 -13 16 -21 21 -21
13z"/>
<path d="M2559 833 c-13 -16 -12 -17 4 -4 9 7 17 15 17 17 0 8 -8 3 -21 -13z"/>
<path d="M3269 763 c-13 -16 -12 -17 4 -4 16 13 21 21 13 21 -2 0 -10 -8 -17
-17z"/>
<path d="M5336 758 c3 -5 10 -6 15 -3 13 9 11 12 -6 12 -8 0 -12 -4 -9 -9z"/>
<path d="M4310 356 c7 -7 13 -7 20 0 6 6 3 10 -10 10 -13 0 -16 -4 -10 -10z"/>
<path d="M2959 298 c-5 -18 -6 -38 -1 -34 7 8 12 36 6 36 -2 0 -4 -1 -5 -2z"/>
</g>
</svg>
